<svg width="1329" height="884" viewBox="0 0 1329 884" fill="none" xmlns="http://www.w3.org/2000/svg">
<path d="M1268.7 505.999C1301.84 506.164 1328.83 479.434 1329 446.298C1329.16 413.161 1302.43 386.165 1269.3 386.001L1268.7 505.999ZM17.7847 397.364C-5.76276 420.678 -5.95129 458.668 17.3636 482.215L397.302 865.943C420.616 889.491 458.606 889.679 482.153 866.364C505.701 843.049 505.889 805.06 482.574 781.513L144.852 440.421L485.943 102.698C509.491 79.3836 509.679 41.3941 486.364 17.8467C463.049 -5.70078 425.06 -5.88932 401.513 17.4256L17.7847 397.364ZM1269.3 386.001L60.2978 380.001L59.7023 499.999L1268.7 505.999L1269.3 386.001Z" fill="white" fill-opacity="0.85"/>
</svg>
